<svg xmlns="http://www.w3.org/2000/svg" xmlns:xlink="http://www.w3.org/1999/xlink" class="hide"><defs><path id="a" d="M0 82.473h204.635V.999H0z"/></defs><symbol id="arrow-left" viewBox="0 0 32 32"><path d="M18.299 6.826c-.669.653-7.203 7.514-7.203 7.514a1.756 1.756 0 0 0 0 2.522s6.534 6.861 7.203 7.512c.669.653 1.872.698 2.586 0 .712-.696.768-1.667-.002-2.52l-5.995-6.253 5.995-6.253c.77-.854.714-1.826.002-2.522-.715-.696-1.918-.653-2.586 0z"/></symbol><symbol id="arrow-right" viewBox="0 0 32 32"><path d="M13.701 6.826c.669.653 7.203 7.514 7.203 7.514a1.754 1.754 0 0 1 0 2.522s-6.534 6.861-7.203 7.512c-.669.653-1.87.698-2.586 0-.714-.696-.77-1.667 0-2.52l5.997-6.253-5.995-6.253c-.77-.854-.714-1.826 0-2.522s1.917-.653 2.584 0z"/></symbol><symbol id="arrow-up" viewBox="0 0 32 32"><path d="M24.773 17.899c-.651-.669-7.512-7.203-7.512-7.203a1.751 1.751 0 0 0-2.522 0s-6.861 6.534-7.514 7.203c-.651.669-.696 1.872 0 2.586.698.712 1.669.77 2.522 0L16 14.49l6.251 5.995c.854.77 1.827.712 2.522 0 .698-.715.654-1.918 0-2.586z"/></symbol><symbol id="chat-bubble" viewBox="0 0 32 32"><path d="M16.028 5.111c4.885 0 8.861 3.987 8.861 8.889s-3.976 8.889-8.835 8.889l-.106-.006a9.588 9.588 0 0 0-.293-.017l-.597-.025-6.515 1.953 1.118-4.413-.918-1.328a8.855 8.855 0 0 1-1.576-5.052c0-4.902 3.975-8.889 8.861-8.889zm0-3.555C9.17 1.556 3.611 7.128 3.611 14c0 2.629.818 5.063 2.207 7.072L3.556 30l11.95-3.582c.175.007.345.026.522.026 6.858 0 12.417-5.572 12.417-12.444S22.886 1.556 16.028 1.556z"/></symbol><symbol id="facebook" viewBox="0 0 32 32"><path d="M24 6.206h-4.57c-.541 0-1.144.71-1.144 1.662v3.299H24v4.704h-5.714v14.128h-5.395V15.873H8v-4.706h4.891V8.399c0-3.97 2.755-7.2 6.538-7.2H24v5.006z"/></symbol><symbol id="feedly" viewBox="0 0 32 32"><path d="M16.082 2.796c-.784 0-1.79.349-2.182.74L1.778 15.659C1.363 16.074 1 16.963 1 17.746s.395 1.738.778 2.123c.385.383 7.88 7.879 8.374 8.373.648.648 1.38.961 2.044.961l7.564-.004c.514 0 1.401-.309 2.043-.951l8.404-8.404c.441-.44.793-1.477.793-2.129s-.427-1.715-.792-2.082c-.366-.366-11.796-11.796-12.098-12.096-.3-.301-1.244-.741-2.028-.741zm.214 19.944l1.708 1.707s.132.16.132.318c0 .16-.127.312-.127.312l-1.219 1.219a.205.205 0 0 1-.121.059l-1.323.008-.064-.008-1.301-1.301a.424.424 0 0 1-.132-.312c0-.158.046-.242.13-.326l1.684-1.684c.058-.059.149-.125.334-.125s.299.133.299.133zm.035-7.013l1.707 1.708s.133.158.133.318c-.001.16-.128.311-.128.311l-4.742 4.744a.218.218 0 0 1-.121.059l-1.322.006-.064-.006s-1.268-1.266-1.301-1.301c-.055-.055-.132-.154-.132-.312s.045-.242.13-.328l5.207-5.207c.058-.058.148-.124.334-.124s.299.132.299.132zm-.034-6.978l1.707 1.707s.132.16.132.319-.127.312-.127.312l-8.215 8.214c-.055.054-.121.059-.121.059l-1.323.007-.064-.008-1.3-1.299a.428.428 0 0 1-.132-.312c0-.16.045-.244.13-.328.026-.027 8.621-8.623 8.68-8.68s.148-.123.334-.123c.184 0 .299.132.299.132z"/></symbol><symbol id="gplus" viewBox="0 0 32 32"><title>32</title><g fill-rule="evenodd"><path d="M2.025 16.333c.079-4.714 4.449-8.842 9.202-8.685 2.278-.105 4.419.878 6.163 2.259a32.703 32.703 0 0 1-2.34 2.403c-2.096-1.438-5.078-1.848-7.175-.188-3 2.058-3.137 6.916-.251 9.131 2.806 2.525 8.11 1.272 8.885-2.595-1.758-.026-3.52 0-5.278-.057-.004-1.04-.008-2.08-.004-3.12 2.938-.008 5.877-.013 8.82.01.175 2.446-.15 5.05-1.666 7.073-2.295 3.202-6.903 4.137-10.498 2.765-3.607-1.363-6.162-5.142-5.858-8.996M25.403 12.74h2.621c.005.87.009 1.744.018 2.613.876.01 1.758.01 2.634.018v2.6c-.876.008-1.753.013-2.634.021-.01.874-.013 1.744-.018 2.613H25.4c-.01-.87-.01-1.739-.018-2.608l-2.634-.026v-2.6c.877-.009 1.753-.013 2.634-.018.004-.873.013-1.743.022-2.612"/></g></symbol><symbol id="hatebu" viewBox="0 0 32 32"><path d="M24.682 3.266h5.926v16.585h-5.926V3.266zM31 25.234a3.356 3.356 0 1 1-6.712 0 3.356 3.356 0 0 1 6.712 0zM16.134 14.922c1.302-.634 4.319-1.554 4.113-5.441 0-3.881-3.388-6.206-6.549-6.206L1 3.276v25.299h12.985c.543 0 7.234 0 7.16-7.685-.13-5.067-3.454-5.629-5.011-5.968zM7.468 8.207h3.783c.614 0 2.3.511 2.3 2.505 0 1.539-1.277 2.504-1.891 2.504H7.468V8.207zm4.601 15.283H7.467v-5.571h3.783c.614 0 3.169.511 3.169 2.785s-1.837 2.786-2.35 2.786z"/></symbol><symbol id="humberger" viewBox="0 0 38 26"><title>humberger</title><g stroke="#43484D" stroke-width="4" fill-rule="evenodd" stroke-linecap="round"><path d="M2 2h34M2 13h34M2 24h34"/></g></symbol><symbol id="logo" viewBox="0 0 205 82"><title>logo</title><g transform="translate(0 -1)" fill-rule="evenodd"><path d="M0 24.337h14.169v5.81c3.212-2.721 6.122-4.611 8.732-5.674 2.608-1.063 5.276-1.593 8.005-1.593 5.598 0 10.349 1.961 14.25 5.883 3.286 3.334 4.925 8.268 4.925 14.797v37.455H36.069V56.193c0-6.762-.302-11.253-.907-13.476-.605-2.22-1.655-3.91-3.158-5.072-1.503-1.163-3.357-1.745-5.565-1.745-2.865 0-5.324.963-7.378 2.888-2.053 1.926-3.479 4.588-4.27 7.99-.416 1.767-.622 5.602-.622 11.498v22.739H0V24.337z"/><mask id="b"><use xlink:href="#a"/></mask><path d="M62.225 81.015h14.169V24.338h-14.17v56.677zM69.309 1c2.485 0 4.613.905 6.39 2.71 1.776 1.807 2.665 3.994 2.665 6.562 0 2.536-.879 4.698-2.64 6.488-1.757 1.79-3.862 2.681-6.312 2.681-2.517 0-4.667-.91-6.444-2.733-1.776-1.825-2.665-4.038-2.665-6.642 0-2.501.879-4.637 2.64-6.407 1.76-1.774 3.881-2.659 6.366-2.659zM89.264 24.337h14.169v5.81c3.212-2.721 6.122-4.611 8.732-5.674 2.607-1.063 5.276-1.593 8.005-1.593 5.598 0 10.348 1.961 14.253 5.883 3.28 3.334 4.921 8.268 4.921 14.797v37.455h-14.011V56.193c0-6.762-.303-11.253-.908-13.476-.602-2.22-1.657-3.91-3.157-5.072-1.503-1.163-3.357-1.745-5.566-1.745-2.864 0-5.323.963-7.377 2.888-2.053 1.926-3.48 4.588-4.271 7.99-.415 1.767-.621 5.602-.621 11.498v22.739h-14.17V24.337zM175.573 36.006c-4.377 0-8.017 1.554-10.911 4.662-2.9 3.108-4.345 7.094-4.345 11.954 0 4.897 1.474 8.926 4.419 12.086 2.948 3.163 6.58 4.743 10.889 4.743 4.448 0 8.137-1.554 11.07-4.662 2.928-3.108 4.396-7.182 4.396-12.22 0-4.93-1.468-8.923-4.397-11.979-2.932-3.056-6.637-4.584-11.12-4.584zm14.894-11.67h14.169v56.678h-14.17v-5.99c-2.761 2.64-5.536 4.539-8.317 5.702-2.784 1.166-5.797 1.748-9.044 1.748-7.294 0-13.6-2.84-18.923-8.52-5.32-5.676-7.983-12.735-7.983-21.174 0-8.752 2.575-15.921 7.725-21.514 5.147-5.592 11.404-8.387 18.765-8.387 3.387 0 6.564.643 9.538 1.926 2.97 1.285 5.716 3.214 8.24 5.783v-6.252z" mask="url(#b)"/></g></symbol><symbol id="new-window" viewBox="0 0 32 32"><path d="M30.222 1.556H12.444c-.982 0-1.778.796-1.778 1.778v5.333H1.777c-.982 0-1.778.796-1.778 1.778v17.778c0 .982.796 1.778 1.778 1.778h17.778c.982 0 1.778-.796 1.778-1.778V22.89h8.889c.982 0 1.778-.796 1.778-1.778V3.334c0-.982-.796-1.778-1.778-1.778zm-12.444 24a.89.89 0 0 1-.889.889H4.445a.889.889 0 0 1-.889-.889V13.112c0-.491.398-.889.889-.889h12.444c.491 0 .889.398.889.889v12.444zm10.666-7.112a.89.89 0 0 1-.889.889h-6.222v-8.889c0-.982-.796-1.778-1.778-1.778h-5.333V5.999c0-.491.398-.889.889-.889h12.444c.491 0 .889.398.889.889v12.444z"/></symbol><symbol id="pocket" viewBox="0 0 32 32"><path d="M30.307 3.529c-.437-.479-1.08-.813-1.742-.813H3.492c-.781 0-1.536.503-1.942 1.037A2.765 2.765 0 0 0 1 5.262v9.575c0 6.486 5.068 14.447 15.553 14.447 7.358 0 14.447-6.26 14.447-14.502V5.261c0-.672-.287-1.285-.693-1.732zm-5.316 9.857c-.21.212-7.688 7.354-7.688 7.354s-.496.463-1.286.463-1.376-.463-1.376-.463L7.09 13.386c-.17-.165-.705-1.64.406-2.521 1.111-.987 2.506-.351 2.751-.105s5.77 5.537 5.77 5.537l5.765-5.537c.28-.354 1.902-.899 2.837.176.969 1.092.581 2.239.372 2.45z"/></symbol><symbol id="quote" viewBox="0 0 20 32"><path d="M0 16v8h8v-8H4s0-4 4-4V8s-8 0-8 8zm20-4V8s-8 0-8 8v8h8v-8h-4s0-4 4-4z"/></symbol><symbol id="request" viewBox="0 0 13 25"><title>request</title><path d="M.5 25a.5.5 0 0 1-.354-.853L11.793 12.5.146.853A.5.5 0 1 1 .853.147l12 12a.497.497 0 0 1 0 .706l-12 12A.495.495 0 0 1 .5 25" fill-rule="evenodd"/></symbol><symbol id="rss" viewBox="0 0 32 32"><path d="M3.203 4.078v3.789c11.338 0 20.528 9.192 20.528 20.53h3.79c0-13.43-10.888-24.318-24.318-24.318zm0 7.58v3.79c7.152 0 12.95 5.797 12.95 12.949h3.787c0-9.243-7.493-16.739-16.738-16.739zm3.632 9.475a3.634 3.634 0 1 0 .003 7.267 3.634 3.634 0 0 0-.003-7.267z"/></symbol><symbol id="search" viewBox="0 0 32 32"><path d="M12.465 5.111c3.898 0 7.07 3.19 7.07 7.111a7.077 7.077 0 0 1-1.311 4.11l-.696.983-.977.699a6.981 6.981 0 0 1-4.086 1.319c-3.899 0-7.07-3.19-7.07-7.111s3.171-7.111 7.07-7.111zm0-3.555c-5.858 0-10.606 4.776-10.606 10.667S6.607 22.89 12.465 22.89a10.5 10.5 0 0 0 6.135-1.977l8.517 8.566a1.76 1.76 0 0 0 2.505 0 1.787 1.787 0 0 0 0-2.518l-8.517-8.566a10.647 10.647 0 0 0 1.965-6.171c0-5.891-4.748-10.667-10.605-10.667z"/></symbol><symbol id="sp_maintxt" viewBox="0 0 299 76"><title>brand strategy and d</title><path d="M15.71 16.604c0 .696-.012 1.416-.036 2.16a15.677 15.677 0 0 1-.216 2.16 8.978 8.978 0 0 1-.576 1.98 5.042 5.042 0 0 1-1.08 1.62c-.528.528-1.194.942-1.998 1.242-.804.3-1.662.45-2.574.45-1.008 0-1.878-.15-2.61-.45-.732-.3-1.422-.81-2.07-1.53V26H.014V.368h4.68V8.9c.624-.696 1.296-1.182 2.016-1.458s1.56-.414 2.52-.414c.912 0 1.77.15 2.574.45.804.3 1.47.714 1.998 1.242.456.48.816 1.026 1.08 1.638a8.64 8.64 0 0 1 .576 1.962c.12.696.192 1.41.216 2.142.024.732.036 1.446.036 2.142zm-4.68 0c0-.768-.036-1.476-.108-2.124-.072-.648-.216-1.212-.432-1.692a2.6 2.6 0 0 0-.954-1.134c-.42-.276-.978-.414-1.674-.414s-1.254.138-1.674.414a2.6 2.6 0 0 0-.954 1.134c-.216.48-.36 1.044-.432 1.692a19.311 19.311 0 0 0-.108 2.124c0 .768.036 1.482.108 2.142.072.66.216 1.23.432 1.71a2.6 2.6 0 0 0 .954 1.134c.42.276.978.414 1.674.414s1.254-.138 1.674-.414a2.6 2.6 0 0 0 .954-1.134c.216-.48.36-1.05.432-1.71.072-.66.108-1.374.108-2.142zm19.032-4.248a4.64 4.64 0 0 0-1.08-.828c-.36-.192-.828-.288-1.404-.288-.36 0-.72.066-1.08.198a2.66 2.66 0 0 0-.972.63 3.3 3.3 0 0 0-.702 1.08c-.18.432-.27.948-.27 1.548V26h-4.68V7.244h4.572v1.8c.456-.552 1.104-1.026 1.944-1.422.84-.396 1.764-.594 2.772-.594.912 0 1.716.132 2.412.396s1.368.72 2.016 1.368l-3.528 3.564zM45.206 26v-1.62c-.624.624-1.278 1.08-1.962 1.368-.684.288-1.566.432-2.646.432-2.088 0-3.684-.552-4.788-1.656a5.336 5.336 0 0 1-1.152-1.872 6.746 6.746 0 0 1-.396-2.34c0-.744.132-1.446.396-2.106.264-.66.66-1.236 1.188-1.728.528-.492 1.194-.882 1.998-1.17.804-.288 1.746-.432 2.826-.432h4.428v-.936c0-1.032-.27-1.782-.81-2.25-.54-.468-1.434-.702-2.682-.702-.456 0-.852.03-1.188.09-.336.06-.642.15-.918.27-.276.12-.534.276-.774.468s-.48.432-.72.72L35.018 9.62c.912-1.008 1.878-1.692 2.898-2.052 1.02-.36 2.31-.54 3.87-.54 2.64 0 4.632.552 5.976 1.656 1.344 1.104 2.016 2.76 2.016 4.968V26h-4.572zm-.108-7.92H41.39c-.84 0-1.488.186-1.944.558-.456.372-.684.894-.684 1.566 0 .648.222 1.17.666 1.566.444.396 1.122.594 2.034.594.648 0 1.2-.048 1.656-.144.456-.096.888-.348 1.296-.756.456-.432.684-1.224.684-2.376V18.08zM65.426 26V14.66c0-.648-.09-1.188-.27-1.62-.18-.432-.42-.78-.72-1.044a2.825 2.825 0 0 0-1.008-.576 3.563 3.563 0 0 0-1.098-.18c-.36 0-.726.06-1.098.18-.372.12-.708.312-1.008.576-.3.264-.546.612-.738 1.044-.192.432-.288.972-.288 1.62V26h-4.68V7.244h4.572v1.728a6.091 6.091 0 0 1 2.16-1.458 6.77 6.77 0 0 1 2.52-.486c.936 0 1.776.144 2.52.432.744.288 1.38.696 1.908 1.224.768.768 1.278 1.59 1.53 2.466.252.876.378 1.83.378 2.862V26h-4.68zm19.788 0v-1.764c-.648.72-1.332 1.23-2.052 1.53-.72.3-1.584.45-2.592.45-.912 0-1.776-.15-2.592-.45-.816-.3-1.488-.714-2.016-1.242a4.564 4.564 0 0 1-1.098-1.62 9.65 9.65 0 0 1-.558-1.98 15.676 15.676 0 0 1-.216-2.16 65.394 65.394 0 0 1 0-4.302c.024-.732.096-1.446.216-2.142s.306-1.35.558-1.962a4.98 4.98 0 0 1 1.098-1.638c.528-.528 1.194-.942 1.998-1.242.804-.3 1.662-.45 2.574-.45.96 0 1.806.138 2.538.414.732.276 1.41.762 2.034 1.458V.368h4.68V26h-4.572zm-.108-9.396c0-.768-.036-1.476-.108-2.124-.072-.648-.222-1.212-.45-1.692a2.721 2.721 0 0 0-.972-1.134c-.42-.276-.978-.414-1.674-.414s-1.254.138-1.674.414a2.6 2.6 0 0 0-.954 1.134c-.216.48-.36 1.044-.432 1.692a19.311 19.311 0 0 0-.108 2.124c0 .768.036 1.482.108 2.142.072.66.216 1.23.432 1.71a2.6 2.6 0 0 0 .954 1.134c.42.276.978.414 1.674.414s1.254-.138 1.674-.414c.42-.276.744-.654.972-1.134.228-.48.378-1.05.45-1.71.072-.66.108-1.374.108-2.142zm31.8 3.492c0 1.032-.204 1.932-.612 2.7a5.382 5.382 0 0 1-1.692 1.908c-.72.504-1.566.882-2.538 1.134a12.37 12.37 0 0 1-3.114.378c-.744 0-1.464-.03-2.16-.09-.696-.06-1.38-.186-2.052-.378a9.13 9.13 0 0 1-1.944-.81c-.624-.348-1.236-.822-1.836-1.422l3.06-3.06c.768.768 1.614 1.254 2.538 1.458.924.204 1.746.306 2.466.306.408 0 .81-.036 1.206-.108a3.94 3.94 0 0 0 1.062-.342c.312-.156.564-.354.756-.594.192-.24.288-.54.288-.9 0-.48-.144-.87-.432-1.17-.288-.3-.804-.486-1.548-.558l-2.952-.288c-1.704-.168-3.042-.654-4.014-1.458-.972-.804-1.458-2.07-1.458-3.798 0-.96.198-1.812.594-2.556a5.688 5.688 0 0 1 1.584-1.872 7.16 7.16 0 0 1 2.304-1.152 9.493 9.493 0 0 1 2.754-.396c1.464 0 2.796.156 3.996.468a7.33 7.33 0 0 1 3.168 1.728l-2.88 2.916a4.543 4.543 0 0 0-1.98-.99c-.768-.18-1.56-.27-2.376-.27-.936 0-1.614.18-2.034.54-.42.36-.63.78-.63 1.26 0 .168.024.342.072.522.048.18.144.342.288.486.144.144.342.276.594.396.252.12.582.192.99.216l2.952.288c1.872.192 3.27.762 4.194 1.71.924.948 1.386 2.214 1.386 3.798zM126.038 26c-.96 0-1.782-.156-2.466-.468-.684-.312-1.248-.72-1.692-1.224a4.76 4.76 0 0 1-.972-1.71 6.385 6.385 0 0 1-.306-1.962v-9.288h-1.98V7.784h1.98V2.24h4.68v5.544h3.312v3.564h-3.312v9c0 1.128.54 1.692 1.62 1.692h1.692V26h-2.556zm16.692-13.644a4.64 4.64 0 0 0-1.08-.828c-.36-.192-.828-.288-1.404-.288-.36 0-.72.066-1.08.198a2.66 2.66 0 0 0-.972.63 3.3 3.3 0 0 0-.702 1.08c-.18.432-.27.948-.27 1.548V26h-4.68V7.244h4.572v1.8c.456-.552 1.104-1.026 1.944-1.422.84-.396 1.764-.594 2.772-.594.912 0 1.716.132 2.412.396s1.368.72 2.016 1.368l-3.528 3.564zM157.874 26v-1.62c-.624.624-1.278 1.08-1.962 1.368-.684.288-1.566.432-2.646.432-2.088 0-3.684-.552-4.788-1.656a5.336 5.336 0 0 1-1.152-1.872 6.746 6.746 0 0 1-.396-2.34c0-.744.132-1.446.396-2.106.264-.66.66-1.236 1.188-1.728.528-.492 1.194-.882 1.998-1.17.804-.288 1.746-.432 2.826-.432h4.428v-.936c0-1.032-.27-1.782-.81-2.25-.54-.468-1.434-.702-2.682-.702-.456 0-.852.03-1.188.09-.336.06-.642.15-.918.27-.276.12-.534.276-.774.468s-.48.432-.72.72l-2.988-2.916c.912-1.008 1.878-1.692 2.898-2.052 1.02-.36 2.31-.54 3.87-.54 2.64 0 4.632.552 5.976 1.656 1.344 1.104 2.016 2.76 2.016 4.968V26h-4.572zm-.108-7.92h-3.708c-.84 0-1.488.186-1.944.558-.456.372-.684.894-.684 1.566 0 .648.222 1.17.666 1.566.444.396 1.122.594 2.034.594.648 0 1.2-.048 1.656-.144.456-.096.888-.348 1.296-.756.456-.432.684-1.224.684-2.376V18.08zM173.054 26c-.96 0-1.782-.156-2.466-.468-.684-.312-1.248-.72-1.692-1.224a4.76 4.76 0 0 1-.972-1.71 6.385 6.385 0 0 1-.306-1.962v-9.288h-1.98V7.784h1.98V2.24h4.68v5.544h3.312v3.564h-3.312v9c0 1.128.54 1.692 1.62 1.692h1.692V26h-2.556zm10.068-7.92c0 1.224.354 2.226 1.062 3.006.708.78 1.722 1.17 3.042 1.17 1.032 0 1.848-.144 2.448-.432.6-.288 1.2-.732 1.8-1.332l2.844 2.772c-.48.48-.96.9-1.44 1.26s-1.002.666-1.566.918a8.59 8.59 0 0 1-1.854.576 11.82 11.82 0 0 1-2.268.198 12.06 12.06 0 0 1-3.222-.432 6.716 6.716 0 0 1-2.772-1.53c-.804-.732-1.452-1.716-1.944-2.952s-.738-2.802-.738-4.698c0-1.536.198-2.898.594-4.086.396-1.188.954-2.19 1.674-3.006a7.04 7.04 0 0 1 2.574-1.854c.996-.42 2.106-.63 3.33-.63 1.296 0 2.454.228 3.474.684a7.389 7.389 0 0 1 2.574 1.872c.696.792 1.224 1.734 1.584 2.826.36 1.092.54 2.286.54 3.582v2.088h-11.736zm7.128-3.204a7.833 7.833 0 0 0-.126-1.062c-.06-.3-.162-.618-.306-.954a3.61 3.61 0 0 0-1.17-1.386c-.516-.372-1.17-.558-1.962-.558s-1.446.186-1.962.558a3.61 3.61 0 0 0-1.17 1.386 4.853 4.853 0 0 0-.306.954c-.06.3-.102.654-.126 1.062h7.128zm23.352 10.44c0 1.128-.192 2.166-.576 3.114a7.09 7.09 0 0 1-1.656 2.466c-.72.696-1.59 1.236-2.61 1.62-1.02.384-2.154.576-3.402.576-1.44 0-2.688-.174-3.744-.522-1.056-.348-2.076-.99-3.06-1.926l2.916-2.952c.528.504 1.074.87 1.638 1.098.564.228 1.242.342 2.034.342.696 0 1.284-.114 1.764-.342.48-.228.87-.522 1.17-.882.3-.36.516-.774.648-1.242.132-.468.198-.942.198-1.422v-1.908c-.624.696-1.296 1.182-2.016 1.458s-1.536.414-2.448.414c-.912 0-1.752-.144-2.52-.432-.768-.288-1.416-.696-1.944-1.224a5.517 5.517 0 0 1-1.044-1.44 6.676 6.676 0 0 1-.576-1.71 14.052 14.052 0 0 1-.234-1.998 46.262 46.262 0 0 1-.054-2.304c0-.816.018-1.578.054-2.286.036-.708.114-1.368.234-1.98.12-.612.312-1.182.576-1.71a5.517 5.517 0 0 1 1.044-1.44c.528-.528 1.182-.936 1.962-1.224a7.272 7.272 0 0 1 2.538-.432c1.008 0 1.86.15 2.556.45.696.3 1.368.81 2.016 1.53V7.244h4.536v18.072zm-4.68-9.216c0-.624-.03-1.23-.09-1.818-.06-.588-.198-1.104-.414-1.548a2.716 2.716 0 0 0-.936-1.08c-.408-.276-.96-.414-1.656-.414s-1.248.138-1.656.414a2.584 2.584 0 0 0-.918 1.08c-.204.444-.336.96-.396 1.548-.06.588-.09 1.194-.09 1.818 0 .624.03 1.23.09 1.818.06.588.192 1.11.396 1.566.204.456.51.822.918 1.098.408.276.96.414 1.656.414s1.248-.138 1.656-.414c.408-.276.72-.642.936-1.098.216-.456.354-.978.414-1.566.06-.588.09-1.194.09-1.818zm16.62 12.924c-.408 1.08-.876 1.884-1.404 2.412-.552.552-1.17.93-1.854 1.134a7.583 7.583 0 0 1-2.178.306h-1.836v-4.212h1.08c.672 0 1.17-.108 1.494-.324.324-.216.606-.672.846-1.368l.792-2.304-6.408-17.424h4.932l3.888 11.592 3.744-11.592h4.932l-8.028 21.78zM253.706 26v-1.62c-.624.624-1.278 1.08-1.962 1.368-.684.288-1.566.432-2.646.432-2.088 0-3.684-.552-4.788-1.656a5.336 5.336 0 0 1-1.152-1.872 6.746 6.746 0 0 1-.396-2.34c0-.744.132-1.446.396-2.106.264-.66.66-1.236 1.188-1.728.528-.492 1.194-.882 1.998-1.17.804-.288 1.746-.432 2.826-.432h4.428v-.936c0-1.032-.27-1.782-.81-2.25-.54-.468-1.434-.702-2.682-.702-.456 0-.852.03-1.188.09-.336.06-.642.15-.918.27-.276.12-.534.276-.774.468s-.48.432-.72.72l-2.988-2.916c.912-1.008 1.878-1.692 2.898-2.052 1.02-.36 2.31-.54 3.87-.54 2.64 0 4.632.552 5.976 1.656 1.344 1.104 2.016 2.76 2.016 4.968V26h-4.572zm-.108-7.92h-3.708c-.84 0-1.488.186-1.944.558-.456.372-.684.894-.684 1.566 0 .648.222 1.17.666 1.566.444.396 1.122.594 2.034.594.648 0 1.2-.048 1.656-.144.456-.096.888-.348 1.296-.756.456-.432.684-1.224.684-2.376V18.08zM273.926 26V14.66c0-.648-.09-1.188-.27-1.62-.18-.432-.42-.78-.72-1.044a2.825 2.825 0 0 0-1.008-.576 3.563 3.563 0 0 0-1.098-.18c-.36 0-.726.06-1.098.18-.372.12-.708.312-1.008.576-.3.264-.546.612-.738 1.044-.192.432-.288.972-.288 1.62V26h-4.68V7.244h4.572v1.728a6.091 6.091 0 0 1 2.16-1.458 6.77 6.77 0 0 1 2.52-.486c.936 0 1.776.144 2.52.432.744.288 1.38.696 1.908 1.224.768.768 1.278 1.59 1.53 2.466.252.876.378 1.83.378 2.862V26h-4.68zm19.788 0v-1.764c-.648.72-1.332 1.23-2.052 1.53-.72.3-1.584.45-2.592.45-.912 0-1.776-.15-2.592-.45-.816-.3-1.488-.714-2.016-1.242a4.564 4.564 0 0 1-1.098-1.62 9.65 9.65 0 0 1-.558-1.98 15.676 15.676 0 0 1-.216-2.16 65.394 65.394 0 0 1 0-4.302c.024-.732.096-1.446.216-2.142s.306-1.35.558-1.962a4.98 4.98 0 0 1 1.098-1.638c.528-.528 1.194-.942 1.998-1.242.804-.3 1.662-.45 2.574-.45.96 0 1.806.138 2.538.414.732.276 1.41.762 2.034 1.458V.368h4.68V26h-4.572zm-.108-9.396c0-.768-.036-1.476-.108-2.124-.072-.648-.222-1.212-.45-1.692a2.721 2.721 0 0 0-.972-1.134c-.42-.276-.978-.414-1.674-.414s-1.254.138-1.674.414a2.6 2.6 0 0 0-.954 1.134c-.216.48-.36 1.044-.432 1.692a19.311 19.311 0 0 0-.108 2.124c0 .768.036 1.482.108 2.142.072.66.216 1.23.432 1.71a2.6 2.6 0 0 0 .954 1.134c.42.276.978.414 1.674.414s1.254-.138 1.674-.414c.42-.276.744-.654.972-1.134.228-.48.378-1.05.45-1.71.072-.66.108-1.374.108-2.142zM41.37 68v-1.764c-.648.72-1.332 1.23-2.052 1.53-.72.3-1.584.45-2.592.45-.912 0-1.776-.15-2.592-.45-.816-.3-1.488-.714-2.016-1.242a4.564 4.564 0 0 1-1.098-1.62 9.65 9.65 0 0 1-.558-1.98 15.677 15.677 0 0 1-.216-2.16 65.394 65.394 0 0 1 0-4.302c.024-.732.096-1.446.216-2.142s.306-1.35.558-1.962a4.98 4.98 0 0 1 1.098-1.638c.528-.528 1.194-.942 1.998-1.242.804-.3 1.662-.45 2.574-.45.96 0 1.806.138 2.538.414.732.276 1.41.762 2.034 1.458v-8.532h4.68V68H41.37zm-.108-9.396c0-.768-.036-1.476-.108-2.124-.072-.648-.222-1.212-.45-1.692a2.721 2.721 0 0 0-.972-1.134c-.42-.276-.978-.414-1.674-.414s-1.254.138-1.674.414a2.6 2.6 0 0 0-.954 1.134c-.216.48-.36 1.044-.432 1.692a19.311 19.311 0 0 0-.108 2.124c0 .768.036 1.482.108 2.142.072.66.216 1.23.432 1.71a2.6 2.6 0 0 0 .954 1.134c.42.276.978.414 1.674.414s1.254-.138 1.674-.414c.42-.276.744-.654.972-1.134.228-.48.378-1.05.45-1.71.072-.66.108-1.374.108-2.142zM50.898 68V49.244h4.68V68h-4.68zm-.072-21.96v-3.816h4.788v3.816h-4.788zm24.396 21.276c0 1.128-.192 2.166-.576 3.114a7.09 7.09 0 0 1-1.656 2.466c-.72.696-1.59 1.236-2.61 1.62-1.02.384-2.154.576-3.402.576-1.44 0-2.688-.174-3.744-.522-1.056-.348-2.076-.99-3.06-1.926l2.916-2.952c.528.504 1.074.87 1.638 1.098.564.228 1.242.342 2.034.342.696 0 1.284-.114 1.764-.342.48-.228.87-.522 1.17-.882.3-.36.516-.774.648-1.242.132-.468.198-.942.198-1.422v-1.908c-.624.696-1.296 1.182-2.016 1.458s-1.536.414-2.448.414c-.912 0-1.752-.144-2.52-.432-.768-.288-1.416-.696-1.944-1.224a5.517 5.517 0 0 1-1.044-1.44 6.676 6.676 0 0 1-.576-1.71 14.052 14.052 0 0 1-.234-1.998 46.261 46.261 0 0 1-.054-2.304c0-.816.018-1.578.054-2.286.036-.708.114-1.368.234-1.98.12-.612.312-1.182.576-1.71a5.517 5.517 0 0 1 1.044-1.44c.528-.528 1.182-.936 1.962-1.224a7.272 7.272 0 0 1 2.538-.432c1.008 0 1.86.15 2.556.45.696.3 1.368.81 2.016 1.53v-1.764h4.536v18.072zm-4.68-9.216c0-.624-.03-1.23-.09-1.818-.06-.588-.198-1.104-.414-1.548a2.716 2.716 0 0 0-.936-1.08c-.408-.276-.96-.414-1.656-.414s-1.248.138-1.656.414a2.584 2.584 0 0 0-.918 1.08c-.204.444-.336.96-.396 1.548-.06.588-.09 1.194-.09 1.818 0 .624.03 1.23.09 1.818.06.588.192 1.11.396 1.566.204.456.51.822.918 1.098.408.276.96.414 1.656.414s1.248-.138 1.656-.414c.408-.276.72-.642.936-1.098.216-.456.354-.978.414-1.566.06-.588.09-1.194.09-1.818zm9.636 9.9V49.244h4.68V68h-4.68zm-.072-21.96v-3.816h4.788v3.816h-4.788zM95.646 68c-.96 0-1.782-.156-2.466-.468-.684-.312-1.248-.72-1.692-1.224a4.76 4.76 0 0 1-.972-1.71 6.385 6.385 0 0 1-.306-1.962v-9.288h-1.98v-3.564h1.98V44.24h4.68v5.544h3.312v3.564H94.89v9c0 1.128.54 1.692 1.62 1.692h1.692V68h-2.556zm16.008 0v-1.62c-.624.624-1.278 1.08-1.962 1.368-.684.288-1.566.432-2.646.432-2.088 0-3.684-.552-4.788-1.656a5.336 5.336 0 0 1-1.152-1.872 6.746 6.746 0 0 1-.396-2.34c0-.744.132-1.446.396-2.106.264-.66.66-1.236 1.188-1.728.528-.492 1.194-.882 1.998-1.17.804-.288 1.746-.432 2.826-.432h4.428v-.936c0-1.032-.27-1.782-.81-2.25-.54-.468-1.434-.702-2.682-.702-.456 0-.852.03-1.188.09-.336.06-.642.15-.918.27-.276.12-.534.276-.774.468s-.48.432-.72.72l-2.988-2.916c.912-1.008 1.878-1.692 2.898-2.052 1.02-.36 2.31-.54 3.87-.54 2.64 0 4.632.552 5.976 1.656 1.344 1.104 2.016 2.76 2.016 4.968V68h-4.572zm-.108-7.92h-3.708c-.84 0-1.488.186-1.944.558-.456.372-.684.894-.684 1.566 0 .648.222 1.17.666 1.566.444.396 1.122.594 2.034.594.648 0 1.2-.048 1.656-.144.456-.096.888-.348 1.296-.756.456-.432.684-1.224.684-2.376V60.08zM126.258 68c-.96 0-1.788-.156-2.484-.468-.696-.312-1.266-.72-1.71-1.224a4.76 4.76 0 0 1-.972-1.71 6.385 6.385 0 0 1-.306-1.962V42.368h4.68v19.98c0 .552.126.972.378 1.26.252.288.678.432 1.278.432h1.8V68h-2.664zm27.804-2.34c-.84.864-1.758 1.506-2.754 1.926-.996.42-2.142.63-3.438.63-.936 0-1.902-.144-2.898-.432a6.764 6.764 0 0 1-2.7-1.53c-.804-.732-1.47-1.716-1.998-2.952s-.792-2.802-.792-4.698c0-1.896.264-3.462.792-4.698.528-1.236 1.194-2.214 1.998-2.934a6.868 6.868 0 0 1 2.7-1.512 10.413 10.413 0 0 1 2.898-.432c1.296 0 2.442.204 3.438.612.996.408 1.914 1.044 2.754 1.908l-3.168 3.168c-.48-.528-.948-.906-1.404-1.134-.456-.228-.996-.342-1.62-.342-1.104 0-1.992.408-2.664 1.224-.36.456-.624 1.008-.792 1.656-.168.648-.252 1.476-.252 2.484 0 1.92.348 3.312 1.044 4.176.672.816 1.56 1.224 2.664 1.224.624 0 1.164-.114 1.62-.342.456-.228.924-.606 1.404-1.134l3.168 3.132zm13.524-11.304a4.64 4.64 0 0 0-1.08-.828c-.36-.192-.828-.288-1.404-.288-.36 0-.72.066-1.08.198a2.66 2.66 0 0 0-.972.63 3.3 3.3 0 0 0-.702 1.08c-.18.432-.27.948-.27 1.548V68h-4.68V49.244h4.572v1.8c.456-.552 1.104-1.026 1.944-1.422.84-.396 1.764-.594 2.772-.594.912 0 1.716.132 2.412.396s1.368.72 2.016 1.368l-3.528 3.564zm8.448 5.724c0 1.224.354 2.226 1.062 3.006.708.78 1.722 1.17 3.042 1.17 1.032 0 1.848-.144 2.448-.432.6-.288 1.2-.732 1.8-1.332l2.844 2.772c-.48.48-.96.9-1.44 1.26s-1.002.666-1.566.918a8.59 8.59 0 0 1-1.854.576 11.82 11.82 0 0 1-2.268.198 12.06 12.06 0 0 1-3.222-.432 6.716 6.716 0 0 1-2.772-1.53c-.804-.732-1.452-1.716-1.944-2.952s-.738-2.802-.738-4.698c0-1.536.198-2.898.594-4.086.396-1.188.954-2.19 1.674-3.006a7.04 7.04 0 0 1 2.574-1.854c.996-.42 2.106-.63 3.33-.63 1.296 0 2.454.228 3.474.684a7.389 7.389 0 0 1 2.574 1.872c.696.792 1.224 1.734 1.584 2.826.36 1.092.54 2.286.54 3.582v2.088h-11.736zm7.128-3.204a7.833 7.833 0 0 0-.126-1.062c-.06-.3-.162-.618-.306-.954a3.61 3.61 0 0 0-1.17-1.386c-.516-.372-1.17-.558-1.962-.558s-1.446.186-1.962.558a3.61 3.61 0 0 0-1.17 1.386 4.853 4.853 0 0 0-.306.954c-.06.3-.102.654-.126 1.062h7.128zM201.402 68v-1.62c-.624.624-1.278 1.08-1.962 1.368-.684.288-1.566.432-2.646.432-2.088 0-3.684-.552-4.788-1.656a5.336 5.336 0 0 1-1.152-1.872 6.746 6.746 0 0 1-.396-2.34c0-.744.132-1.446.396-2.106.264-.66.66-1.236 1.188-1.728.528-.492 1.194-.882 1.998-1.17.804-.288 1.746-.432 2.826-.432h4.428v-.936c0-1.032-.27-1.782-.81-2.25-.54-.468-1.434-.702-2.682-.702-.456 0-.852.03-1.188.09-.336.06-.642.15-.918.27-.276.12-.534.276-.774.468s-.48.432-.72.72l-2.988-2.916c.912-1.008 1.878-1.692 2.898-2.052 1.02-.36 2.31-.54 3.87-.54 2.64 0 4.632.552 5.976 1.656 1.344 1.104 2.016 2.76 2.016 4.968V68h-4.572zm-.108-7.92h-3.708c-.84 0-1.488.186-1.944.558-.456.372-.684.894-.684 1.566 0 .648.222 1.17.666 1.566.444.396 1.122.594 2.034.594.648 0 1.2-.048 1.656-.144.456-.096.888-.348 1.296-.756.456-.432.684-1.224.684-2.376V60.08zM216.582 68c-.96 0-1.782-.156-2.466-.468-.684-.312-1.248-.72-1.692-1.224a4.76 4.76 0 0 1-.972-1.71 6.385 6.385 0 0 1-.306-1.962v-9.288h-1.98v-3.564h1.98V44.24h4.68v5.544h3.312v3.564h-3.312v9c0 1.128.54 1.692 1.62 1.692h1.692V68h-2.556zm6.504 0V49.244h4.68V68h-4.68zm-.072-21.96v-3.816h4.788v3.816h-4.788zm24.756 12.564c0 1.704-.144 3.126-.432 4.266a6.79 6.79 0 0 1-1.692 3.042c-.576.624-1.344 1.164-2.304 1.62-.96.456-2.136.684-3.528.684s-2.562-.228-3.51-.684c-.948-.456-1.71-.996-2.286-1.62a6.79 6.79 0 0 1-1.692-3.042c-.288-1.14-.432-2.562-.432-4.266 0-1.704.144-3.12.432-4.248.288-1.128.852-2.136 1.692-3.024.576-.624 1.338-1.164 2.286-1.62.948-.456 2.118-.684 3.51-.684s2.568.228 3.528.684c.96.456 1.728.996 2.304 1.62.84.888 1.404 1.896 1.692 3.024.288 1.128.432 2.544.432 4.248zm-4.68 0c0-.984-.06-1.866-.18-2.646-.12-.78-.42-1.41-.9-1.89-.552-.552-1.284-.828-2.196-.828-.888 0-1.608.276-2.16.828-.48.48-.78 1.11-.9 1.89-.12.78-.18 1.662-.18 2.646s.06 1.872.18 2.664.42 1.428.9 1.908c.552.552 1.272.828 2.16.828.912 0 1.644-.276 2.196-.828.48-.48.78-1.116.9-1.908.12-.792.18-1.68.18-2.664zM262.842 68V56.66c0-.648-.09-1.188-.27-1.62-.18-.432-.42-.78-.72-1.044a2.825 2.825 0 0 0-1.008-.576 3.563 3.563 0 0 0-1.098-.18c-.36 0-.726.06-1.098.18-.372.12-.708.312-1.008.576-.3.264-.546.612-.738 1.044-.192.432-.288.972-.288 1.62V68h-4.68V49.244h4.572v1.728a6.091 6.091 0 0 1 2.16-1.458 6.77 6.77 0 0 1 2.52-.486c.936 0 1.776.144 2.52.432.744.288 1.38.696 1.908 1.224.768.768 1.278 1.59 1.53 2.466.252.876.378 1.83.378 2.862V68h-4.68z" fill-rule="evenodd"/></symbol><symbol id="twitter" viewBox="0 0 32 32"><path d="M30.72 6.469a12.078 12.078 0 0 1-3.47.952 6.049 6.049 0 0 0 2.656-3.341 12.114 12.114 0 0 1-3.834 1.466 6.033 6.033 0 0 0-4.41-1.907 6.04 6.04 0 0 0-5.883 7.414 17.141 17.141 0 0 1-12.448-6.31 6.036 6.036 0 0 0 1.867 8.064 6.016 6.016 0 0 1-2.736-.755v.075a6.047 6.047 0 0 0 4.845 5.923 6.044 6.044 0 0 1-2.728.104c.768 2.4 3 4.146 5.642 4.194a12.11 12.11 0 0 1-7.501 2.586c-.488 0-.968-.029-1.44-.085a17.087 17.087 0 0 0 9.259 2.714c11.109 0 17.184-9.203 17.184-17.186a15.6 15.6 0 0 0-.018-.781 12.272 12.272 0 0 0 3.014-3.126z"/></symbol></svg>