<?xml version="1.0" encoding="UTF-8" standalone="no"?>
<svg width="205px" height="82px" viewBox="0 0 205 82" version="1.1" xmlns="http://www.w3.org/2000/svg" xmlns:xlink="http://www.w3.org/1999/xlink">
    <!-- Generator: Sketch 39.1 (31720) - http://www.bohemiancoding.com/sketch -->
    <title>logo</title>
    <desc>Created with Sketch.</desc>
    <defs>
        <polygon id="path-1" points="0 82.4725692 204.63525 82.4725692 204.63525 0.999030769 0 0.999030769"></polygon>
    </defs>
    <g id="Page-1" stroke="none" stroke-width="1" fill="none" fill-rule="evenodd">
        <g id="logo" transform="translate(0.000000, -1.000000)">
            <path d="M0,24.3371385 L14.1689375,24.3371385 L14.1689375,30.1460615 C17.38125,27.4257538 20.291,25.5357538 22.9014062,24.4728308 C25.5085937,23.4099077 28.1769375,22.8800615 30.9064375,22.8800615 C36.5038438,22.8800615 41.2547187,24.8411385 45.1558437,28.7632923 C48.4421875,32.0974462 50.0805312,37.0308308 50.0805312,43.5602154 L50.0805312,81.0145231 L36.0693125,81.0145231 L36.0693125,56.1925231 C36.0693125,49.4305231 35.76675,44.9397538 35.161625,42.7169846 C34.5565,40.4974462 33.5071875,38.8077538 32.0040312,37.6446769 C30.500875,36.4816 28.646875,35.9000615 26.4388125,35.9000615 C23.574125,35.9000615 21.115,36.8628308 19.0614375,38.7883692 C17.007875,40.7139077 15.5819687,43.3760615 14.7901562,46.7780615 C14.3749375,48.5452923 14.1689375,52.3802154 14.1689375,58.2763692 L14.1689375,81.0145231 L0,81.0145231 L0,24.3371385 L0,24.3371385 Z" id="Fill-1" fill="#000000"></path>
            <mask id="mask-2" fill="white">
                <use xlink:href="#path-1"></use>
            </mask>
            <g id="Clip-4"></g>
            <path d="M62.224875,81.0154923 L76.3938125,81.0154923 L76.3938125,24.3381077 L62.224875,24.3381077 L62.224875,81.0154923 Z M69.3093438,0.999030769 C71.7942188,0.999030769 73.9218125,1.90364615 75.6985625,3.70964615 C77.4753125,5.51564615 78.3636875,7.70287692 78.3636875,10.2713385 C78.3636875,12.8074923 77.4849688,14.9688769 75.7243125,16.7587231 C73.966875,18.5485692 71.8618125,19.4402615 69.4123438,19.4402615 C66.8952813,19.4402615 64.7451563,18.5291846 62.9684063,16.7070308 C61.1916563,14.8816462 60.3032813,12.6685692 60.3032813,10.0645692 C60.3032813,7.56395385 61.182,5.42841538 62.9426563,3.65795385 C64.7033125,1.88426154 66.8244688,0.999030769 69.3093438,0.999030769 L69.3093438,0.999030769 Z" id="Fill-3" fill="#000000" mask="url(#mask-2)"></path>
            <path d="M89.2636625,24.3371385 L103.4326,24.3371385 L103.4326,30.1460615 C106.644913,27.4257538 109.554663,25.5357538 112.165069,24.4728308 C114.772256,23.4099077 117.4406,22.8800615 120.1701,22.8800615 C125.767506,22.8800615 130.518381,24.8411385 134.422725,28.7632923 C137.702631,32.0974462 139.344194,37.0308308 139.344194,43.5602154 L139.344194,81.0145231 L125.332975,81.0145231 L125.332975,56.1925231 C125.332975,49.4305231 125.030413,44.9397538 124.425288,42.7169846 C123.823381,40.4974462 122.767631,38.8077538 121.267694,37.6446769 C119.764538,36.4816 117.910538,35.9000615 115.702475,35.9000615 C112.837788,35.9000615 110.378663,36.8628308 108.3251,38.7883692 C106.271538,40.7139077 104.845631,43.3760615 104.053819,46.7780615 C103.6386,48.5452923 103.4326,52.3802154 103.4326,58.2763692 L103.4326,81.0145231 L89.2636625,81.0145231 L89.2636625,24.3371385 Z" id="Fill-5" fill="#000000" mask="url(#mask-2)"></path>
            <path d="M175.573478,36.0057077 C171.195978,36.0057077 167.555572,37.5597077 164.661916,40.6677077 C161.761822,43.7757077 160.316603,47.7624769 160.316603,52.6215538 C160.316603,57.5194 161.790791,61.5481692 164.735947,64.7078615 C167.684322,67.8707846 171.315072,69.4506308 175.624978,69.4506308 C180.073291,69.4506308 183.761978,67.8966308 186.694259,64.7886308 C189.623322,61.6806308 191.091072,57.6066308 191.091072,52.5698615 C191.091072,47.6397077 189.623322,43.6464769 186.694259,40.5901692 C183.761978,37.5338615 180.057197,36.0057077 175.573478,36.0057077 L175.573478,36.0057077 Z M190.466634,24.3361692 L204.635572,24.3361692 L204.635572,81.0135538 L190.466634,81.0135538 L190.466634,75.0237077 C187.704947,77.6632462 184.930384,79.5629385 182.149384,80.7260154 C179.365166,81.8923231 176.352416,82.4738615 173.104697,82.4738615 C165.811009,82.4738615 159.505478,79.6340154 154.181666,73.9543231 C148.861072,68.2778615 146.199166,61.2186308 146.199166,52.7798615 C146.199166,44.0277077 148.774166,36.8586308 153.924166,31.2661692 C159.070947,25.6737077 165.328197,22.8790923 172.689478,22.8790923 C176.075603,22.8790923 179.252509,23.5220154 182.226634,24.8046308 C185.197541,26.0904769 187.943134,28.0192462 190.466634,30.5877077 L190.466634,24.3361692 Z" id="Fill-6" fill="#000000" mask="url(#mask-2)"></path>
        </g>
    </g>
</svg>