<?xml version="1.0" encoding="UTF-8" standalone="no"?>
<svg width="299px" height="76px" viewBox="0 0 299 76" version="1.1" xmlns="http://www.w3.org/2000/svg" xmlns:xlink="http://www.w3.org/1999/xlink">
    <!-- Generator: Sketch 39.1 (31720) - http://www.bohemiancoding.com/sketch -->
    <title>brand strategy and d</title>
    <desc>Created with Sketch.</desc>
    <defs></defs>
    <g id="Page-1" stroke="none" stroke-width="1" fill="none" fill-rule="evenodd">
        <g id="iPhone-6" transform="translate(-39.000000, -134.000000)" fill="#000000">
            <path d="M54.7100001,150.604 C54.7100001,151.300003 54.6980002,152.019996 54.6740001,152.764 C54.65,153.508004 54.5780007,154.227997 54.4580001,154.924 C54.3379995,155.620003 54.1460014,156.279997 53.8820001,156.904 C53.6179988,157.528003 53.2580024,158.067998 52.8020001,158.524 C52.2739975,159.052003 51.6080041,159.465999 50.8040001,159.766 C49.9999961,160.066001 49.1420047,160.216 48.2300001,160.216 C47.2219951,160.216 46.3520038,160.066001 45.6200001,159.766 C44.8879964,159.465999 44.1980033,158.956004 43.5500001,158.236 L43.5500001,160 L39.0140001,160 L39.0140001,134.368 L43.6940001,134.368 L43.6940001,142.9 C44.3180032,142.203997 44.9899965,141.718001 45.7100001,141.442 C46.4300037,141.165999 47.2699953,141.028 48.2300001,141.028 C49.1420047,141.028 49.9999961,141.177999 50.8040001,141.478 C51.6080041,141.778001 52.2739975,142.191997 52.8020001,142.72 C53.2580024,143.200002 53.6179988,143.745997 53.8820001,144.358 C54.1460014,144.970003 54.3379995,145.623997 54.4580001,146.32 C54.5780007,147.016003 54.65,147.729996 54.6740001,148.462 C54.6980002,149.194004 54.7100001,149.907997 54.7100001,150.604 L54.7100001,150.604 Z M50.0300001,150.604 C50.0300001,149.835996 49.9940005,149.128003 49.9220001,148.48 C49.8499997,147.831997 49.7060012,147.268002 49.4900001,146.788 C49.273999,146.307998 48.9560022,145.930001 48.5360001,145.654 C48.115998,145.377999 47.5580036,145.24 46.8620001,145.24 C46.1659966,145.24 45.6080022,145.377999 45.1880001,145.654 C44.767998,145.930001 44.4500012,146.307998 44.2340001,146.788 C44.017999,147.268002 43.8740005,147.831997 43.8020001,148.48 C43.7299997,149.128003 43.6940001,149.835996 43.6940001,150.604 C43.6940001,151.372004 43.7299997,152.085997 43.8020001,152.746 C43.8740005,153.406003 44.017999,153.975998 44.2340001,154.456 C44.4500012,154.936002 44.767998,155.313999 45.1880001,155.59 C45.6080022,155.866001 46.1659966,156.004 46.8620001,156.004 C47.5580036,156.004 48.115998,155.866001 48.5360001,155.59 C48.9560022,155.313999 49.273999,154.936002 49.4900001,154.456 C49.7060012,153.975998 49.8499997,153.406003 49.9220001,152.746 C49.9940005,152.085997 50.0300001,151.372004 50.0300001,150.604 L50.0300001,150.604 Z M69.0620001,146.356 C68.7019983,145.995998 68.3420019,145.720001 67.9820001,145.528 C67.6219983,145.335999 67.154003,145.24 66.5780001,145.24 C66.2179983,145.24 65.8580019,145.305999 65.4980001,145.438 C65.1379983,145.570001 64.8140015,145.779999 64.5260001,146.068 C64.2379987,146.356001 64.004001,146.715998 63.8240001,147.148 C63.6439992,147.580002 63.5540001,148.095997 63.5540001,148.696 L63.5540001,160 L58.8740001,160 L58.8740001,141.244 L63.4460001,141.244 L63.4460001,143.044 C63.9020024,142.491997 64.5499959,142.018002 65.3900001,141.622 C66.2300043,141.225998 67.1539951,141.028 68.1620001,141.028 C69.0740047,141.028 69.8779966,141.159999 70.5740001,141.424 C71.2700036,141.688001 71.9419969,142.143997 72.5900001,142.792 L69.0620001,146.356 Z M84.2060001,160 L84.2060001,158.38 C83.581997,159.004003 82.9280035,159.459999 82.2440001,159.748 C81.5599967,160.036001 80.6780055,160.18 79.5980001,160.18 C77.5099896,160.18 75.9140056,159.628006 74.8100001,158.524 C74.3059976,157.995997 73.9220014,157.372004 73.6580001,156.652 C73.3939988,155.931996 73.2620001,155.152004 73.2620001,154.312 C73.2620001,153.567996 73.3939988,152.866003 73.6580001,152.206 C73.9220014,151.545997 74.3179974,150.970002 74.8460001,150.478 C75.3740027,149.985998 76.0399961,149.596001 76.8440001,149.308 C77.6480041,149.019999 78.5899947,148.876 79.6700001,148.876 L84.0980001,148.876 L84.0980001,147.94 C84.0980001,146.907995 83.8280028,146.158002 83.2880001,145.69 C82.7479974,145.221998 81.8540063,144.988 80.6060001,144.988 C80.1499978,144.988 79.7540018,145.018 79.4180001,145.078 C79.0819984,145.138 78.7760015,145.227999 78.5000001,145.348 C78.2239987,145.468001 77.9660013,145.623999 77.7260001,145.816 C77.4859989,146.008001 77.2460013,146.247999 77.0060001,146.536 L74.0180001,143.62 C74.9300046,142.611995 75.895995,141.928002 76.9160001,141.568 C77.9360052,141.207998 79.2259923,141.028 80.7860001,141.028 C83.4260133,141.028 85.4179934,141.579994 86.7620001,142.684 C88.1060068,143.788006 88.7780001,145.443989 88.7780001,147.652 L88.7780001,160 L84.2060001,160 Z M84.0980001,152.08 L80.3900001,152.08 C79.5499959,152.08 78.9020024,152.265998 78.4460001,152.638 C77.9899978,153.010002 77.7620001,153.531997 77.7620001,154.204 C77.7620001,154.852003 77.9839979,155.373998 78.4280001,155.77 C78.8720023,156.166002 79.5499955,156.364 80.4620001,156.364 C81.1100033,156.364 81.6619978,156.316 82.1180001,156.22 C82.5740024,156.124 83.005998,155.872002 83.4140001,155.464 C83.8700024,155.031998 84.0980001,154.240006 84.0980001,153.088 L84.0980001,152.08 Z M104.426,160 L104.426,148.66 C104.426,148.011997 104.336001,147.472002 104.156,147.04 C103.975999,146.607998 103.736002,146.260001 103.436,145.996 C103.135999,145.731999 102.800002,145.540001 102.428,145.42 C102.055998,145.299999 101.690002,145.24 101.33,145.24 C100.969998,145.24 100.604002,145.299999 100.232,145.42 C99.8599982,145.540001 99.5240016,145.731999 99.2240001,145.996 C98.9239986,146.260001 98.678001,146.607998 98.4860001,147.04 C98.2939991,147.472002 98.1980001,148.011997 98.1980001,148.66 L98.1980001,160 L93.5180001,160 L93.5180001,141.244 L98.0900001,141.244 L98.0900001,142.972 C98.7140032,142.323997 99.433996,141.838002 100.25,141.514 C101.066004,141.189998 101.905996,141.028 102.77,141.028 C103.706005,141.028 104.545996,141.171999 105.29,141.46 C106.034004,141.748001 106.669997,142.155997 107.198,142.684 C107.966004,143.452004 108.475999,144.273996 108.728,145.15 C108.980001,146.026004 109.106,146.979995 109.106,148.012 L109.106,160 L104.426,160 Z M124.214,160 L124.214,158.236 C123.565997,158.956004 122.882004,159.465999 122.162,159.766 C121.441996,160.066001 120.578005,160.216 119.57,160.216 C118.657995,160.216 117.794004,160.066001 116.978,159.766 C116.161996,159.465999 115.490003,159.052003 114.962,158.524 C114.481998,158.067998 114.116001,157.528003 113.864,156.904 C113.611999,156.279997 113.426001,155.620003 113.306,154.924 C113.185999,154.227997 113.114,153.508004 113.09,152.764 C113.066,152.019996 113.054,151.300003 113.054,150.604 C113.054,149.907997 113.066,149.194004 113.09,148.462 C113.114,147.729996 113.185999,147.016003 113.306,146.32 C113.426001,145.623997 113.611999,144.970003 113.864,144.358 C114.116001,143.745997 114.481998,143.200002 114.962,142.72 C115.490003,142.191997 116.155996,141.778001 116.96,141.478 C117.764004,141.177999 118.621995,141.028 119.534,141.028 C120.494005,141.028 121.339996,141.165999 122.072,141.442 C122.804004,141.718001 123.481997,142.203997 124.106,142.9 L124.106,134.368 L128.786,134.368 L128.786,160 L124.214,160 Z M124.106,150.604 C124.106,149.835996 124.07,149.128003 123.998,148.48 C123.926,147.831997 123.776001,147.268002 123.548,146.788 C123.319999,146.307998 122.996002,145.930001 122.576,145.654 C122.155998,145.377999 121.598004,145.24 120.902,145.24 C120.205997,145.24 119.648002,145.377999 119.228,145.654 C118.807998,145.930001 118.490001,146.307998 118.274,146.788 C118.057999,147.268002 117.914,147.831997 117.842,148.48 C117.77,149.128003 117.734,149.835996 117.734,150.604 C117.734,151.372004 117.77,152.085997 117.842,152.746 C117.914,153.406003 118.057999,153.975998 118.274,154.456 C118.490001,154.936002 118.807998,155.313999 119.228,155.59 C119.648002,155.866001 120.205997,156.004 120.902,156.004 C121.598004,156.004 122.155998,155.866001 122.576,155.59 C122.996002,155.313999 123.319999,154.936002 123.548,154.456 C123.776001,153.975998 123.926,153.406003 123.998,152.746 C124.07,152.085997 124.106,151.372004 124.106,150.604 L124.106,150.604 Z M155.906,154.096 C155.906,155.128005 155.702002,156.027996 155.294,156.796 C154.885998,157.564004 154.322004,158.199997 153.602,158.704 C152.881996,159.208003 152.036005,159.585999 151.064,159.838 C150.091995,160.090001 149.054006,160.216 147.95,160.216 C147.205996,160.216 146.486004,160.186 145.79,160.126 C145.093997,160.066 144.410003,159.940001 143.738,159.748 C143.065997,159.555999 142.418003,159.286002 141.794,158.938 C141.169997,158.589998 140.558003,158.116003 139.958,157.516 L143.018,154.456 C143.786004,155.224004 144.631995,155.709999 145.556,155.914 C146.480005,156.118001 147.301996,156.22 148.022,156.22 C148.430002,156.22 148.831998,156.184 149.228,156.112 C149.624002,156.04 149.977998,155.926001 150.29,155.77 C150.602002,155.613999 150.853999,155.416001 151.046,155.176 C151.238001,154.935999 151.334,154.636002 151.334,154.276 C151.334,153.795998 151.190001,153.406002 150.902,153.106 C150.613999,152.805998 150.098004,152.62 149.354,152.548 L146.402,152.26 C144.697992,152.091999 143.360005,151.606004 142.388,150.802 C141.415995,149.997996 140.93,148.732009 140.93,147.004 C140.93,146.043995 141.127998,145.192004 141.524,144.448 C141.920002,143.703996 142.447997,143.080003 143.108,142.576 C143.768003,142.071997 144.535996,141.688001 145.412,141.424 C146.288004,141.159999 147.205995,141.028 148.166,141.028 C149.630007,141.028 150.961994,141.183998 152.162,141.496 C153.362006,141.808002 154.417995,142.383996 155.33,143.224 L152.45,146.14 C151.897997,145.659998 151.238004,145.330001 150.47,145.15 C149.701996,144.969999 148.910004,144.88 148.094,144.88 C147.157995,144.88 146.480002,145.059998 146.06,145.42 C145.639998,145.780002 145.43,146.199998 145.43,146.68 C145.43,146.848001 145.454,147.021999 145.502,147.202 C145.55,147.382001 145.645999,147.543999 145.79,147.688 C145.934001,147.832001 146.131999,147.963999 146.384,148.084 C146.636001,148.204001 146.965998,148.276 147.374,148.3 L150.326,148.588 C152.198009,148.780001 153.595995,149.349995 154.52,150.298 C155.444005,151.246005 155.906,152.511992 155.906,154.096 L155.906,154.096 Z M165.038,160 C164.077995,160 163.256003,159.844002 162.572,159.532 C161.887997,159.219998 161.324002,158.812003 160.88,158.308 C160.435998,157.803997 160.112001,157.234003 159.908,156.598 C159.703999,155.961997 159.602,155.308003 159.602,154.636 L159.602,145.348 L157.622,145.348 L157.622,141.784 L159.602,141.784 L159.602,136.24 L164.282,136.24 L164.282,141.784 L167.594,141.784 L167.594,145.348 L164.282,145.348 L164.282,154.348 C164.282,155.476006 164.821995,156.04 165.902,156.04 L167.594,156.04 L167.594,160 L165.038,160 Z M181.73,146.356 C181.369998,145.995998 181.010002,145.720001 180.65,145.528 C180.289998,145.335999 179.822003,145.24 179.246,145.24 C178.885998,145.24 178.526002,145.305999 178.166,145.438 C177.805998,145.570001 177.482001,145.779999 177.194,146.068 C176.905999,146.356001 176.672001,146.715998 176.492,147.148 C176.311999,147.580002 176.222,148.095997 176.222,148.696 L176.222,160 L171.542,160 L171.542,141.244 L176.114,141.244 L176.114,143.044 C176.570002,142.491997 177.217996,142.018002 178.058,141.622 C178.898004,141.225998 179.821995,141.028 180.83,141.028 C181.742005,141.028 182.545997,141.159999 183.242,141.424 C183.938003,141.688001 184.609997,142.143997 185.258,142.792 L181.73,146.356 Z M196.874,160 L196.874,158.38 C196.249997,159.004003 195.596003,159.459999 194.912,159.748 C194.227997,160.036001 193.346005,160.18 192.266,160.18 C190.17799,160.18 188.582006,159.628006 187.478,158.524 C186.973997,157.995997 186.590001,157.372004 186.326,156.652 C186.061999,155.931996 185.93,155.152004 185.93,154.312 C185.93,153.567996 186.061999,152.866003 186.326,152.206 C186.590001,151.545997 186.985997,150.970002 187.514,150.478 C188.042003,149.985998 188.707996,149.596001 189.512,149.308 C190.316004,149.019999 191.257995,148.876 192.338,148.876 L196.766,148.876 L196.766,147.94 C196.766,146.907995 196.496003,146.158002 195.956,145.69 C195.415997,145.221998 194.522006,144.988 193.274,144.988 C192.817998,144.988 192.422002,145.018 192.086,145.078 C191.749998,145.138 191.444001,145.227999 191.168,145.348 C190.891999,145.468001 190.634001,145.623999 190.394,145.816 C190.153999,146.008001 189.914001,146.247999 189.674,146.536 L186.686,143.62 C187.598005,142.611995 188.563995,141.928002 189.584,141.568 C190.604005,141.207998 191.893992,141.028 193.454,141.028 C196.094013,141.028 198.085993,141.579994 199.43,142.684 C200.774007,143.788006 201.446,145.443989 201.446,147.652 L201.446,160 L196.874,160 Z M196.766,152.08 L193.058,152.08 C192.217996,152.08 191.570002,152.265998 191.114,152.638 C190.657998,153.010002 190.43,153.531997 190.43,154.204 C190.43,154.852003 190.651998,155.373998 191.096,155.77 C191.540002,156.166002 192.217995,156.364 193.13,156.364 C193.778003,156.364 194.329998,156.316 194.786,156.22 C195.242002,156.124 195.673998,155.872002 196.082,155.464 C196.538002,155.031998 196.766,154.240006 196.766,153.088 L196.766,152.08 Z M212.054,160 C211.093995,160 210.272003,159.844002 209.588,159.532 C208.903997,159.219998 208.340002,158.812003 207.896,158.308 C207.451998,157.803997 207.128001,157.234003 206.924,156.598 C206.719999,155.961997 206.618,155.308003 206.618,154.636 L206.618,145.348 L204.638,145.348 L204.638,141.784 L206.618,141.784 L206.618,136.24 L211.298,136.24 L211.298,141.784 L214.61,141.784 L214.61,145.348 L211.298,145.348 L211.298,154.348 C211.298,155.476006 211.837995,156.04 212.918,156.04 L214.61,156.04 L214.61,160 L212.054,160 Z M222.122,152.08 C222.122,153.304006 222.475996,154.305996 223.184,155.086 C223.892004,155.866004 224.905993,156.256 226.226,156.256 C227.258005,156.256 228.073997,156.112001 228.674,155.824 C229.274003,155.535999 229.873997,155.092003 230.474,154.492 L233.318,157.264 C232.837998,157.744002 232.358002,158.163998 231.878,158.524 C231.397998,158.884002 230.876003,159.189999 230.312,159.442 C229.747997,159.694001 229.130003,159.885999 228.458,160.018 C227.785997,160.150001 227.030004,160.216 226.19,160.216 C225.085994,160.216 224.012005,160.072001 222.968,159.784 C221.923995,159.495999 221.000004,158.986004 220.196,158.254 C219.391996,157.521996 218.744002,156.538006 218.252,155.302 C217.759998,154.065994 217.514,152.500009 217.514,150.604 C217.514,149.067992 217.711998,147.706006 218.108,146.518 C218.504002,145.329994 219.061996,144.328004 219.782,143.512 C220.502004,142.695996 221.359995,142.078002 222.356,141.658 C223.352005,141.237998 224.461994,141.028 225.686,141.028 C226.982006,141.028 228.139995,141.255998 229.16,141.712 C230.180005,142.168002 231.037996,142.791996 231.734,143.584 C232.430003,144.376004 232.957998,145.317995 233.318,146.41 C233.678002,147.502005 233.858,148.695994 233.858,149.992 L233.858,152.08 L222.122,152.08 Z M229.25,148.876 C229.226,148.467998 229.184,148.114002 229.124,147.814 C229.064,147.513999 228.962001,147.196002 228.818,146.86 C228.553999,146.307997 228.164003,145.846002 227.648,145.474 C227.131997,145.101998 226.478004,144.916 225.686,144.916 C224.893996,144.916 224.240003,145.101998 223.724,145.474 C223.207997,145.846002 222.818001,146.307997 222.554,146.86 C222.409999,147.196002 222.308,147.513999 222.248,147.814 C222.188,148.114002 222.146,148.467998 222.122,148.876 L229.25,148.876 Z M252.602,159.316 C252.602,160.444006 252.410002,161.481995 252.026,162.43 C251.641998,163.378005 251.090004,164.199997 250.37,164.896 C249.649996,165.592003 248.780005,166.131998 247.76,166.516 C246.739995,166.900002 245.606006,167.092 244.358,167.092 C242.917993,167.092 241.670005,166.918002 240.614,166.57 C239.557995,166.221998 238.538005,165.580005 237.554,164.644 L240.47,161.692 C240.998003,162.196003 241.543997,162.561999 242.108,162.79 C242.672003,163.018001 243.349996,163.132 244.142,163.132 C244.838003,163.132 245.425998,163.018001 245.906,162.79 C246.386002,162.561999 246.775998,162.268002 247.076,161.908 C247.376001,161.547998 247.591999,161.134002 247.724,160.666 C247.856001,160.197998 247.922,159.724002 247.922,159.244 L247.922,157.336 C247.297997,158.032003 246.626004,158.517999 245.906,158.794 C245.185996,159.070001 244.370005,159.208 243.458,159.208 C242.545995,159.208 241.706004,159.064001 240.938,158.776 C240.169996,158.487999 239.522003,158.080003 238.994,157.552 C238.561998,157.119998 238.214001,156.640003 237.95,156.112 C237.685999,155.583997 237.494001,155.014003 237.374,154.402 C237.253999,153.789997 237.176,153.124004 237.14,152.404 C237.104,151.683996 237.086,150.916004 237.086,150.1 C237.086,149.283996 237.104,148.522004 237.14,147.814 C237.176,147.105996 237.253999,146.446003 237.374,145.834 C237.494001,145.221997 237.685999,144.652003 237.95,144.124 C238.214001,143.595997 238.561998,143.116002 238.994,142.684 C239.522003,142.155997 240.175996,141.748001 240.956,141.46 C241.736004,141.171999 242.581995,141.028 243.494,141.028 C244.502005,141.028 245.353996,141.177999 246.05,141.478 C246.746003,141.778001 247.417997,142.287996 248.066,143.008 L248.066,141.244 L252.602,141.244 L252.602,159.316 Z M247.922,150.1 C247.922,149.475997 247.892,148.870003 247.832,148.282 C247.772,147.693997 247.634001,147.178002 247.418,146.734 C247.201999,146.289998 246.890002,145.930001 246.482,145.654 C246.073998,145.377999 245.522003,145.24 244.826,145.24 C244.129996,145.24 243.578002,145.377999 243.17,145.654 C242.761998,145.930001 242.456001,146.289998 242.252,146.734 C242.047999,147.178002 241.916,147.693997 241.856,148.282 C241.796,148.870003 241.766,149.475997 241.766,150.1 C241.766,150.724003 241.796,151.329997 241.856,151.918 C241.916,152.506003 242.047999,153.027998 242.252,153.484 C242.456001,153.940002 242.761998,154.305999 243.17,154.582 C243.578002,154.858001 244.129996,154.996 244.826,154.996 C245.522003,154.996 246.073998,154.858001 246.482,154.582 C246.890002,154.305999 247.201999,153.940002 247.418,153.484 C247.634001,153.027998 247.772,152.506003 247.832,151.918 C247.892,151.329997 247.922,150.724003 247.922,150.1 L247.922,150.1 Z M264.542,163.024 C264.133998,164.104005 263.666003,164.907997 263.138,165.436 C262.585997,165.988003 261.968003,166.365999 261.284,166.57 C260.599997,166.774001 259.874004,166.876 259.106,166.876 L257.27,166.876 L257.27,162.664 L258.35,162.664 C259.022003,162.664 259.519998,162.556001 259.844,162.34 C260.168002,162.123999 260.449999,161.668003 260.69,160.972 L261.482,158.668 L255.074,141.244 L260.006,141.244 L263.894,152.836 L267.638,141.244 L272.57,141.244 L264.542,163.024 Z M292.706,160 L292.706,158.38 C292.081997,159.004003 291.428003,159.459999 290.744,159.748 C290.059997,160.036001 289.178005,160.18 288.098,160.18 C286.009989,160.18 284.414005,159.628006 283.31,158.524 C282.805997,157.995997 282.422001,157.372004 282.158,156.652 C281.893999,155.931996 281.762,155.152004 281.762,154.312 C281.762,153.567996 281.893999,152.866003 282.158,152.206 C282.422001,151.545997 282.817997,150.970002 283.346,150.478 C283.874003,149.985998 284.539996,149.596001 285.344,149.308 C286.148004,149.019999 287.089995,148.876 288.17,148.876 L292.598,148.876 L292.598,147.94 C292.598,146.907995 292.328003,146.158002 291.788,145.69 C291.247997,145.221998 290.354006,144.988 289.106,144.988 C288.649998,144.988 288.254002,145.018 287.918,145.078 C287.581998,145.138 287.276001,145.227999 287,145.348 C286.723999,145.468001 286.466001,145.623999 286.226,145.816 C285.985999,146.008001 285.746001,146.247999 285.506,146.536 L282.518,143.62 C283.430004,142.611995 284.395995,141.928002 285.416,141.568 C286.436005,141.207998 287.725992,141.028 289.286,141.028 C291.926013,141.028 293.917993,141.579994 295.262,142.684 C296.606007,143.788006 297.278,145.443989 297.278,147.652 L297.278,160 L292.706,160 Z M292.598,152.08 L288.89,152.08 C288.049996,152.08 287.402002,152.265998 286.946,152.638 C286.489998,153.010002 286.262,153.531997 286.262,154.204 C286.262,154.852003 286.483998,155.373998 286.928,155.77 C287.372002,156.166002 288.049995,156.364 288.962,156.364 C289.610003,156.364 290.161998,156.316 290.618,156.22 C291.074002,156.124 291.505998,155.872002 291.914,155.464 C292.370002,155.031998 292.598,154.240006 292.598,153.088 L292.598,152.08 Z M312.926,160 L312.926,148.66 C312.926,148.011997 312.836001,147.472002 312.656,147.04 C312.475999,146.607998 312.236001,146.260001 311.936,145.996 C311.635998,145.731999 311.300002,145.540001 310.928,145.42 C310.555998,145.299999 310.190002,145.24 309.83,145.24 C309.469998,145.24 309.104002,145.299999 308.732,145.42 C308.359998,145.540001 308.024001,145.731999 307.724,145.996 C307.423998,146.260001 307.178001,146.607998 306.986,147.04 C306.793999,147.472002 306.698,148.011997 306.698,148.66 L306.698,160 L302.018,160 L302.018,141.244 L306.59,141.244 L306.59,142.972 C307.214003,142.323997 307.933996,141.838002 308.75,141.514 C309.566004,141.189998 310.405996,141.028 311.27,141.028 C312.206005,141.028 313.045996,141.171999 313.79,141.46 C314.534004,141.748001 315.169997,142.155997 315.698,142.684 C316.466004,143.452004 316.975999,144.273996 317.228,145.15 C317.480001,146.026004 317.606,146.979995 317.606,148.012 L317.606,160 L312.926,160 Z M332.714,160 L332.714,158.236 C332.065997,158.956004 331.382004,159.465999 330.662,159.766 C329.941996,160.066001 329.078005,160.216 328.07,160.216 C327.157995,160.216 326.294004,160.066001 325.478,159.766 C324.661996,159.465999 323.990003,159.052003 323.462,158.524 C322.981998,158.067998 322.616001,157.528003 322.364,156.904 C322.111999,156.279997 321.926001,155.620003 321.806,154.924 C321.685999,154.227997 321.614,153.508004 321.59,152.764 C321.566,152.019996 321.554,151.300003 321.554,150.604 C321.554,149.907997 321.566,149.194004 321.59,148.462 C321.614,147.729996 321.685999,147.016003 321.806,146.32 C321.926001,145.623997 322.111999,144.970003 322.364,144.358 C322.616001,143.745997 322.981998,143.200002 323.462,142.72 C323.990003,142.191997 324.655996,141.778001 325.46,141.478 C326.264004,141.177999 327.121995,141.028 328.034,141.028 C328.994005,141.028 329.839996,141.165999 330.572,141.442 C331.304004,141.718001 331.981997,142.203997 332.606,142.9 L332.606,134.368 L337.286,134.368 L337.286,160 L332.714,160 Z M332.606,150.604 C332.606,149.835996 332.57,149.128003 332.498,148.48 C332.426,147.831997 332.276001,147.268002 332.048,146.788 C331.819999,146.307998 331.496002,145.930001 331.076,145.654 C330.655998,145.377999 330.098003,145.24 329.402,145.24 C328.705996,145.24 328.148002,145.377999 327.728,145.654 C327.307998,145.930001 326.990001,146.307998 326.774,146.788 C326.557999,147.268002 326.414,147.831997 326.342,148.48 C326.27,149.128003 326.234,149.835996 326.234,150.604 C326.234,151.372004 326.27,152.085997 326.342,152.746 C326.414,153.406003 326.557999,153.975998 326.774,154.456 C326.990001,154.936002 327.307998,155.313999 327.728,155.59 C328.148002,155.866001 328.705996,156.004 329.402,156.004 C330.098003,156.004 330.655998,155.866001 331.076,155.59 C331.496002,155.313999 331.819999,154.936002 332.048,154.456 C332.276001,153.975998 332.426,153.406003 332.498,152.746 C332.57,152.085997 332.606,151.372004 332.606,150.604 L332.606,150.604 Z M80.3702858,202 L80.3702858,200.236 C79.7222826,200.956004 79.0382894,201.465999 78.3182858,201.766 C77.5982822,202.066001 76.7342908,202.216 75.7262858,202.216 C74.8142812,202.216 73.9502899,202.066001 73.1342858,201.766 C72.3182817,201.465999 71.6462884,201.052003 71.1182858,200.524 C70.6382834,200.067998 70.2722871,199.528003 70.0202858,198.904 C69.7682845,198.279997 69.5822864,197.620003 69.4622858,196.924 C69.3422852,196.227997 69.2702859,195.508004 69.2462858,194.764 C69.2222857,194.019996 69.2102858,193.300003 69.2102858,192.604 C69.2102858,191.907997 69.2222857,191.194004 69.2462858,190.462 C69.2702859,189.729996 69.3422852,189.016003 69.4622858,188.32 C69.5822864,187.623997 69.7682845,186.970003 70.0202858,186.358 C70.2722871,185.745997 70.6382834,185.200002 71.1182858,184.72 C71.6462884,184.191997 72.3122818,183.778002 73.1162858,183.478 C73.9202898,183.177999 74.7782812,183.028 75.6902858,183.028 C76.6502906,183.028 77.4962821,183.165999 78.2282858,183.442 C78.9602895,183.718001 79.6382827,184.203997 80.2622858,184.9 L80.2622858,176.368 L84.9422858,176.368 L84.9422858,202 L80.3702858,202 Z M80.2622858,192.604 C80.2622858,191.835996 80.2262862,191.128003 80.1542858,190.48 C80.0822854,189.831997 79.9322869,189.268002 79.7042858,188.788 C79.4762847,188.307998 79.1522879,187.930001 78.7322858,187.654 C78.3122837,187.377999 77.7542893,187.24 77.0582858,187.24 C76.3622823,187.24 75.8042879,187.377999 75.3842858,187.654 C74.9642837,187.930001 74.6462869,188.307998 74.4302858,188.788 C74.2142847,189.268002 74.0702862,189.831997 73.9982858,190.48 C73.9262854,191.128003 73.8902858,191.835996 73.8902858,192.604 C73.8902858,193.372004 73.9262854,194.085997 73.9982858,194.746 C74.0702862,195.406003 74.2142847,195.975998 74.4302858,196.456 C74.6462869,196.936002 74.9642837,197.313999 75.3842858,197.59 C75.8042879,197.866001 76.3622823,198.004 77.0582858,198.004 C77.7542893,198.004 78.3122837,197.866001 78.7322858,197.59 C79.1522879,197.313999 79.4762847,196.936002 79.7042858,196.456 C79.9322869,195.975998 80.0822854,195.406003 80.1542858,194.746 C80.2262862,194.085997 80.2622858,193.372004 80.2622858,192.604 L80.2622858,192.604 Z M89.8982858,202 L89.8982858,183.244 L94.5782858,183.244 L94.5782858,202 L89.8982858,202 Z M89.8262858,180.04 L89.8262858,176.224 L94.6142858,176.224 L94.6142858,180.04 L89.8262858,180.04 Z M114.222286,201.316 C114.222286,202.444006 114.030288,203.481995 113.646286,204.43 C113.262284,205.378005 112.710289,206.199997 111.990286,206.896 C111.270282,207.592003 110.400291,208.131998 109.380286,208.516 C108.360281,208.900002 107.226292,209.092 105.978286,209.092 C104.538279,209.092 103.290291,208.918002 102.234286,208.57 C101.17828,208.221998 100.158291,207.580005 99.1742858,206.644 L102.090286,203.692 C102.618288,204.196003 103.164283,204.561999 103.728286,204.79 C104.292289,205.018001 104.970282,205.132 105.762286,205.132 C106.458289,205.132 107.046283,205.018001 107.526286,204.79 C108.006288,204.561999 108.396284,204.268002 108.696286,203.908 C108.996287,203.547998 109.212285,203.134002 109.344286,202.666 C109.476286,202.197998 109.542286,201.724002 109.542286,201.244 L109.542286,199.336 C108.918283,200.032003 108.246289,200.517999 107.526286,200.794 C106.806282,201.070001 105.99029,201.208 105.078286,201.208 C104.166281,201.208 103.32629,201.064001 102.558286,200.776 C101.790282,200.487999 101.142288,200.080003 100.614286,199.552 C100.182284,199.119998 99.8342871,198.640003 99.5702858,198.112 C99.3062845,197.583997 99.1142864,197.014003 98.9942858,196.402 C98.8742852,195.789997 98.796286,195.124004 98.7602858,194.404 C98.7242856,193.683996 98.7062858,192.916004 98.7062858,192.1 C98.7062858,191.283996 98.7242856,190.522004 98.7602858,189.814 C98.796286,189.105996 98.8742852,188.446003 98.9942858,187.834 C99.1142864,187.221997 99.3062845,186.652003 99.5702858,186.124 C99.8342871,185.595997 100.182284,185.116002 100.614286,184.684 C101.142288,184.155997 101.796282,183.748001 102.576286,183.46 C103.35629,183.171999 104.202281,183.028 105.114286,183.028 C106.122291,183.028 106.974282,183.177999 107.670286,183.478 C108.366289,183.778002 109.038283,184.287996 109.686286,185.008 L109.686286,183.244 L114.222286,183.244 L114.222286,201.316 Z M109.542286,192.1 C109.542286,191.475997 109.512286,190.870003 109.452286,190.282 C109.392285,189.693997 109.254287,189.178002 109.038286,188.734 C108.822285,188.289998 108.510288,187.930001 108.102286,187.654 C107.694284,187.377999 107.142289,187.24 106.446286,187.24 C105.750282,187.24 105.198288,187.377999 104.790286,187.654 C104.382284,187.930001 104.076287,188.289998 103.872286,188.734 C103.668285,189.178002 103.536286,189.693997 103.476286,190.282 C103.416285,190.870003 103.386286,191.475997 103.386286,192.1 C103.386286,192.724003 103.416285,193.329997 103.476286,193.918 C103.536286,194.506003 103.668285,195.027998 103.872286,195.484 C104.076287,195.940002 104.382284,196.305999 104.790286,196.582 C105.198288,196.858001 105.750282,196.996 106.446286,196.996 C107.142289,196.996 107.694284,196.858001 108.102286,196.582 C108.510288,196.305999 108.822285,195.940002 109.038286,195.484 C109.254287,195.027998 109.392285,194.506003 109.452286,193.918 C109.512286,193.329997 109.542286,192.724003 109.542286,192.1 L109.542286,192.1 Z M119.178286,202 L119.178286,183.244 L123.858286,183.244 L123.858286,202 L119.178286,202 Z M119.106286,180.04 L119.106286,176.224 L123.894286,176.224 L123.894286,180.04 L119.106286,180.04 Z M134.646286,202 C133.686281,202 132.864289,201.844002 132.180286,201.532 C131.496282,201.219998 130.932288,200.812003 130.488286,200.308 C130.044284,199.803997 129.720287,199.234003 129.516286,198.598 C129.312285,197.961997 129.210286,197.308003 129.210286,196.636 L129.210286,187.348 L127.230286,187.348 L127.230286,183.784 L129.210286,183.784 L129.210286,178.24 L133.890286,178.24 L133.890286,183.784 L137.202286,183.784 L137.202286,187.348 L133.890286,187.348 L133.890286,196.348 C133.890286,197.476006 134.43028,198.04 135.510286,198.04 L137.202286,198.04 L137.202286,202 L134.646286,202 Z M150.654286,202 L150.654286,200.38 C150.030283,201.004003 149.376289,201.459999 148.692286,201.748 C148.008282,202.036001 147.126291,202.18 146.046286,202.18 C143.958275,202.18 142.362291,201.628006 141.258286,200.524 C140.754283,199.995997 140.370287,199.372004 140.106286,198.652 C139.842284,197.931996 139.710286,197.152004 139.710286,196.312 C139.710286,195.567996 139.842284,194.866003 140.106286,194.206 C140.370287,193.545997 140.766283,192.970002 141.294286,192.478 C141.822288,191.985998 142.488282,191.596001 143.292286,191.308 C144.09629,191.019999 145.03828,190.876 146.118286,190.876 L150.546286,190.876 L150.546286,189.94 C150.546286,188.907995 150.276288,188.158002 149.736286,187.69 C149.196283,187.221998 148.302292,186.988 147.054286,186.988 C146.598283,186.988 146.202287,187.018 145.866286,187.078 C145.530284,187.138 145.224287,187.227999 144.948286,187.348 C144.672284,187.468001 144.414287,187.623999 144.174286,187.816 C143.934285,188.008001 143.694287,188.247999 143.454286,188.536 L140.466286,185.62 C141.37829,184.611995 142.344281,183.928002 143.364286,183.568 C144.384291,183.207998 145.674278,183.028 147.234286,183.028 C149.874299,183.028 151.866279,183.579994 153.210286,184.684 C154.554292,185.788006 155.226286,187.443989 155.226286,189.652 L155.226286,202 L150.654286,202 Z M150.546286,194.08 L146.838286,194.08 C145.998282,194.08 145.350288,194.265998 144.894286,194.638 C144.438283,195.010002 144.210286,195.531997 144.210286,196.204 C144.210286,196.852003 144.432284,197.373998 144.876286,197.77 C145.320288,198.166002 145.998281,198.364 146.910286,198.364 C147.558289,198.364 148.110283,198.316 148.566286,198.22 C149.022288,198.124 149.454284,197.872002 149.862286,197.464 C150.318288,197.031998 150.546286,196.240006 150.546286,195.088 L150.546286,194.08 Z M165.258286,202 C164.298281,202 163.470289,201.844002 162.774286,201.532 C162.078282,201.219998 161.508288,200.812003 161.064286,200.308 C160.620284,199.803997 160.296287,199.234003 160.092286,198.598 C159.888285,197.961997 159.786286,197.308003 159.786286,196.636 L159.786286,176.368 L164.466286,176.368 L164.466286,196.348 C164.466286,196.900003 164.592284,197.319999 164.844286,197.608 C165.096287,197.896001 165.522283,198.04 166.122286,198.04 L167.922286,198.04 L167.922286,202 L165.258286,202 Z M193.062286,199.66 C192.222282,200.524004 191.304291,201.165998 190.308286,201.586 C189.312281,202.006002 188.166292,202.216 186.870286,202.216 C185.934281,202.216 184.968291,202.072001 183.972286,201.784 C182.976281,201.495999 182.07629,200.986004 181.272286,200.254 C180.468282,199.521996 179.802288,198.538006 179.274286,197.302 C178.746283,196.065994 178.482286,194.500009 178.482286,192.604 C178.482286,190.707991 178.746283,189.142006 179.274286,187.906 C179.802288,186.669994 180.468282,185.692004 181.272286,184.972 C182.07629,184.251996 182.976281,183.748001 183.972286,183.46 C184.968291,183.171999 185.934281,183.028 186.870286,183.028 C188.166292,183.028 189.312281,183.231998 190.308286,183.64 C191.304291,184.048002 192.222282,184.683996 193.062286,185.548 L189.894286,188.716 C189.414283,188.187997 188.946288,187.810001 188.490286,187.582 C188.034283,187.353999 187.494289,187.24 186.870286,187.24 C185.76628,187.24 184.878289,187.647996 184.206286,188.464 C183.846284,188.920002 183.582287,189.471997 183.414286,190.12 C183.246285,190.768003 183.162286,191.595995 183.162286,192.604 C183.162286,194.52401 183.510282,195.915996 184.206286,196.78 C184.878289,197.596004 185.76628,198.004 186.870286,198.004 C187.494289,198.004 188.034283,197.890001 188.490286,197.662 C188.946288,197.433999 189.414283,197.056003 189.894286,196.528 L193.062286,199.66 Z M206.586286,188.356 C206.226284,187.995998 205.866287,187.720001 205.506286,187.528 C205.146284,187.335999 204.678289,187.24 204.102286,187.24 C203.742284,187.24 203.382287,187.305999 203.022286,187.438 C202.662284,187.570001 202.338287,187.779999 202.050286,188.068 C201.762284,188.356001 201.528287,188.715998 201.348286,189.148 C201.168285,189.580002 201.078286,190.095997 201.078286,190.696 L201.078286,202 L196.398286,202 L196.398286,183.244 L200.970286,183.244 L200.970286,185.044 C201.426288,184.491997 202.074281,184.018002 202.914286,183.622 C203.75429,183.225998 204.678281,183.028 205.686286,183.028 C206.59829,183.028 207.402282,183.159999 208.098286,183.424 C208.794289,183.688001 209.466282,184.143997 210.114286,184.792 L206.586286,188.356 Z M215.034286,194.08 C215.034286,195.304006 215.388282,196.305996 216.096286,197.086 C216.804289,197.866004 217.818279,198.256 219.138286,198.256 C220.170291,198.256 220.986283,198.112001 221.586286,197.824 C222.186289,197.535999 222.786283,197.092003 223.386286,196.492 L226.230286,199.264 C225.750283,199.744002 225.270288,200.163998 224.790286,200.524 C224.310283,200.884002 223.788289,201.189999 223.224286,201.442 C222.660283,201.694001 222.042289,201.885999 221.370286,202.018 C220.698282,202.150001 219.94229,202.216 219.102286,202.216 C217.99828,202.216 216.924291,202.072001 215.880286,201.784 C214.83628,201.495999 213.91229,200.986004 213.108286,200.254 C212.304282,199.521996 211.656288,198.538006 211.164286,197.302 C210.672283,196.065994 210.426286,194.500009 210.426286,192.604 C210.426286,191.067992 210.624284,189.706006 211.020286,188.518 C211.416288,187.329994 211.974282,186.328004 212.694286,185.512 C213.414289,184.695996 214.272281,184.078002 215.268286,183.658 C216.264291,183.237998 217.37428,183.028 218.598286,183.028 C219.894292,183.028 221.052281,183.255998 222.072286,183.712 C223.092291,184.168002 223.950282,184.791996 224.646286,185.584 C225.342289,186.376004 225.870284,187.317995 226.230286,188.41 C226.590287,189.502005 226.770286,190.695994 226.770286,191.992 L226.770286,194.08 L215.034286,194.08 Z M222.162286,190.876 C222.138286,190.467998 222.096286,190.114002 222.036286,189.814 C221.976285,189.513999 221.874286,189.196002 221.730286,188.86 C221.466284,188.307997 221.076288,187.846002 220.560286,187.474 C220.044283,187.101998 219.39029,186.916 218.598286,186.916 C217.806282,186.916 217.152288,187.101998 216.636286,187.474 C216.120283,187.846002 215.730287,188.307997 215.466286,188.86 C215.322285,189.196002 215.220286,189.513999 215.160286,189.814 C215.100285,190.114002 215.058286,190.467998 215.034286,190.876 L222.162286,190.876 Z M240.402286,202 L240.402286,200.38 C239.778283,201.004003 239.124289,201.459999 238.440286,201.748 C237.756282,202.036001 236.874291,202.18 235.794286,202.18 C233.706275,202.18 232.110291,201.628006 231.006286,200.524 C230.502283,199.995997 230.118287,199.372004 229.854286,198.652 C229.590284,197.931996 229.458286,197.152004 229.458286,196.312 C229.458286,195.567996 229.590284,194.866003 229.854286,194.206 C230.118287,193.545997 230.514283,192.970002 231.042286,192.478 C231.570288,191.985998 232.236282,191.596001 233.040286,191.308 C233.84429,191.019999 234.78628,190.876 235.866286,190.876 L240.294286,190.876 L240.294286,189.94 C240.294286,188.907995 240.024288,188.158002 239.484286,187.69 C238.944283,187.221998 238.050292,186.988 236.802286,186.988 C236.346283,186.988 235.950287,187.018 235.614286,187.078 C235.278284,187.138 234.972287,187.227999 234.696286,187.348 C234.420284,187.468001 234.162287,187.623999 233.922286,187.816 C233.682284,188.008001 233.442287,188.247999 233.202286,188.536 L230.214286,185.62 C231.12629,184.611995 232.092281,183.928002 233.112286,183.568 C234.132291,183.207998 235.422278,183.028 236.982286,183.028 C239.622299,183.028 241.614279,183.579994 242.958286,184.684 C244.302292,185.788006 244.974286,187.443989 244.974286,189.652 L244.974286,202 L240.402286,202 Z M240.294286,194.08 L236.586286,194.08 C235.746281,194.08 235.098288,194.265998 234.642286,194.638 C234.186283,195.010002 233.958286,195.531997 233.958286,196.204 C233.958286,196.852003 234.180283,197.373998 234.624286,197.77 C235.068288,198.166002 235.746281,198.364 236.658286,198.364 C237.306289,198.364 237.858283,198.316 238.314286,198.22 C238.770288,198.124 239.202284,197.872002 239.610286,197.464 C240.066288,197.031998 240.294286,196.240006 240.294286,195.088 L240.294286,194.08 Z M255.582286,202 C254.622281,202 253.800289,201.844002 253.116286,201.532 C252.432282,201.219998 251.868288,200.812003 251.424286,200.308 C250.980283,199.803997 250.656287,199.234003 250.452286,198.598 C250.248285,197.961997 250.146286,197.308003 250.146286,196.636 L250.146286,187.348 L248.166286,187.348 L248.166286,183.784 L250.146286,183.784 L250.146286,178.24 L254.826286,178.24 L254.826286,183.784 L258.138286,183.784 L258.138286,187.348 L254.826286,187.348 L254.826286,196.348 C254.826286,197.476006 255.36628,198.04 256.446286,198.04 L258.138286,198.04 L258.138286,202 L255.582286,202 Z M262.086286,202 L262.086286,183.244 L266.766286,183.244 L266.766286,202 L262.086286,202 Z M262.014286,180.04 L262.014286,176.224 L266.802286,176.224 L266.802286,180.04 L262.014286,180.04 Z M286.770286,192.604 C286.770286,194.308009 286.626287,195.729994 286.338286,196.87 C286.050284,198.010006 285.48629,199.023996 284.646286,199.912 C284.070283,200.536003 283.30229,201.075998 282.342286,201.532 C281.382281,201.988002 280.206293,202.216 278.814286,202.216 C277.422279,202.216 276.25229,201.988002 275.304286,201.532 C274.356281,201.075998 273.594289,200.536003 273.018286,199.912 C272.178281,199.023996 271.614287,198.010006 271.326286,196.87 C271.038284,195.729994 270.894286,194.308009 270.894286,192.604 C270.894286,190.899991 271.038284,189.484006 271.326286,188.356 C271.614287,187.227994 272.178281,186.220004 273.018286,185.332 C273.594289,184.707997 274.356281,184.168002 275.304286,183.712 C276.25229,183.255998 277.422279,183.028 278.814286,183.028 C280.206293,183.028 281.382281,183.255998 282.342286,183.712 C283.30229,184.168002 284.070283,184.707997 284.646286,185.332 C285.48629,186.220004 286.050284,187.227994 286.338286,188.356 C286.626287,189.484006 286.770286,190.899991 286.770286,192.604 L286.770286,192.604 Z M282.090286,192.604 C282.090286,191.619995 282.030286,190.738004 281.910286,189.958 C281.790285,189.177996 281.490288,188.548002 281.010286,188.068 C280.458283,187.515997 279.72629,187.24 278.814286,187.24 C277.926281,187.24 277.206288,187.515997 276.654286,188.068 C276.174283,188.548002 275.874286,189.177996 275.754286,189.958 C275.634285,190.738004 275.574286,191.619995 275.574286,192.604 C275.574286,193.588005 275.634285,194.475996 275.754286,195.268 C275.874286,196.060004 276.174283,196.695998 276.654286,197.176 C277.206288,197.728003 277.926281,198.004 278.814286,198.004 C279.72629,198.004 280.458283,197.728003 281.010286,197.176 C281.490288,196.695998 281.790285,196.060004 281.910286,195.268 C282.030286,194.475996 282.090286,193.588005 282.090286,192.604 L282.090286,192.604 Z M301.842286,202 L301.842286,190.66 C301.842286,190.011997 301.752287,189.472002 301.572286,189.04 C301.392285,188.607998 301.152287,188.260001 300.852286,187.996 C300.552284,187.731999 300.216287,187.540001 299.844286,187.42 C299.472284,187.299999 299.106287,187.24 298.746286,187.24 C298.386284,187.24 298.020287,187.299999 297.648286,187.42 C297.276284,187.540001 296.940287,187.731999 296.640286,187.996 C296.340284,188.260001 296.094287,188.607998 295.902286,189.04 C295.710285,189.472002 295.614286,190.011997 295.614286,190.66 L295.614286,202 L290.934286,202 L290.934286,183.244 L295.506286,183.244 L295.506286,184.972 C296.130289,184.323997 296.850282,183.838002 297.666286,183.514 C298.48229,183.189998 299.322281,183.028 300.186286,183.028 C301.12229,183.028 301.962282,183.171999 302.706286,183.46 C303.450289,183.748001 304.086283,184.155997 304.614286,184.684 C305.382289,185.452004 305.892284,186.273996 306.144286,187.15 C306.396287,188.026004 306.522286,188.979995 306.522286,190.012 L306.522286,202 L301.842286,202 Z" id="brand-strategy-and-d"></path>
        </g>
    </g>
</svg>